<?xml version="1.0"?>
<svg xmlns="http://www.w3.org/2000/svg" viewBox="0 0 50 50">
    <path style="line-height:normal;text-indent:0;text-align:start;text-decoration-line:none;text-decoration-style:solid;text-decoration-color:#000;text-transform:none;block-progression:tb;isolation:auto;mix-blend-mode:normal" d="M 10.984375 1.9863281 A 1.0001 1.0001 0 0 0 10 3 L 10 5 A 1.0001 1.0001 0 1 0 12 5 L 12 3 A 1.0001 1.0001 0 0 0 10.984375 1.9863281 z M 38.984375 1.9863281 A 1.0001 1.0001 0 0 0 38 3 L 38 6 A 1.0001 1.0001 0 1 0 40 6 L 40 3 A 1.0001 1.0001 0 0 0 38.984375 1.9863281 z M 46.037109 1.9882812 A 1.0001 1.0001 0 0 0 45.199219 2.4003906 L 42.199219 6.4003906 A 1.0003907 1.0003907 0 0 0 43.800781 7.5996094 L 46.800781 3.5996094 A 1.0001 1.0001 0 0 0 46.037109 1.9882812 z M 3.9902344 1.9902344 A 1.0001 1.0001 0 0 0 3.2929688 3.7070312 L 6.2929688 6.7070312 A 1.0001 1.0001 0 1 0 7.7070312 5.2929688 L 4.7070312 2.2929688 A 1.0001 1.0001 0 0 0 3.9902344 1.9902344 z M 17 6 C 12.766 6 9.1435156 8.9528594 8.2285156 13.005859 C 5.2815156 13.126859 2.8416406 15.223 2.1816406 18 L 5.9804688 18 C 6.9164687 18 7.631875 18.041 8.171875 18.125 C 8.837875 18.23 9.4716875 18.454062 10.054688 18.789062 C 10.756687 19.193062 11.298781 19.744781 11.675781 20.425781 C 11.754781 20.324781 11.826156 20.220047 11.910156 20.123047 C 13.251156 18.571047 15.159781 17.75 17.425781 17.75 C 19.682781 17.75 21.587547 18.564422 22.935547 20.107422 C 23.099547 20.295422 23.253484 20.492313 23.396484 20.695312 C 23.535484 20.497312 23.683797 20.306047 23.841797 20.123047 C 25.182797 18.571047 27.091422 17.75 29.357422 17.75 C 31.415422 17.75 33.175188 18.435609 34.492188 19.724609 L 34.492188 18 L 36.492188 18 L 39.753906 18 L 41.080078 18 L 41.597656 19.222656 L 42.248047 20.767578 L 42.896484 19.224609 L 43.410156 18 L 44.738281 18 L 46.818359 18 C 46.138359 15.138 43.567 13 40.5 13 C 39.847 13 39.196172 13.098063 38.576172 13.289062 C 37.416172 9.5800625 33.985 7 30 7 C 27.753 7 25.616656 7.8333594 23.972656 9.3183594 C 22.273656 7.2213594 19.748 6 17 6 z M 48.003906 8.9941406 A 1.0001 1.0001 0 0 0 47.552734 9.1054688 L 45.552734 10.105469 A 1.0001163 1.0001163 0 1 0 46.447266 11.894531 L 48.447266 10.894531 A 1.0001 1.0001 0 0 0 48.003906 8.9941406 z M 3 9 A 1.0001 1.0001 0 1 0 3 11 L 5 11 A 1.0001 1.0001 0 1 0 5 9 L 3 9 z M 17.425781 19.75 C 15.726781 19.75 14.391828 20.309687 13.423828 21.429688 C 12.454828 22.549687 11.970703 24.074906 11.970703 26.003906 C 11.970703 27.916906 12.454828 29.4365 13.423828 30.5625 C 14.391828 31.6885 15.725781 32.25 17.425781 32.25 C 19.120781 32.25 20.455687 31.694031 21.429688 30.582031 C 22.402688 29.470031 22.888672 27.942906 22.888672 26.003906 C 22.888672 24.064906 22.402688 22.538828 21.429688 21.423828 C 20.455687 20.308828 19.120781 19.75 17.425781 19.75 z M 29.357422 19.75 C 27.658422 19.75 26.323469 20.309687 25.355469 21.429688 C 24.386469 22.549687 23.902344 24.074906 23.902344 26.003906 C 23.902344 27.916906 24.386469 29.4365 25.355469 30.5625 C 26.323469 31.6885 27.657422 32.25 29.357422 32.25 C 31.052422 32.25 32.387328 31.694031 33.361328 30.582031 C 34.334328 29.470031 34.820312 27.942906 34.820312 26.003906 C 34.820313 24.064906 34.334328 22.538828 33.361328 21.423828 C 32.387328 20.308828 31.052422 19.75 29.357422 19.75 z M 2 20 L 2 32 L 6.5097656 32 C 7.2917656 32 7.9344063 31.923437 8.4414062 31.773438 C 8.9484062 31.623437 9.4138906 31.370625 9.8378906 31.015625 C 10.195891 30.720625 10.481359 30.348484 10.693359 29.896484 C 10.905359 29.445484 11.011719 28.920219 11.011719 28.324219 C 11.011719 27.507219 10.801859 26.859906 10.380859 26.378906 C 9.9618594 25.897906 9.4049844 25.579828 8.7089844 25.423828 L 8.7089844 25.359375 C 9.1939844 25.144375 9.5726562 24.808563 9.8476562 24.351562 C 10.122656 23.894562 10.261719 23.372109 10.261719 22.787109 C 10.261719 22.282109 10.161891 21.836219 9.9628906 21.449219 C 9.7638906 21.062219 9.4615938 20.755437 9.0585938 20.523438 C 8.6855937 20.308437 8.285375 20.166609 7.859375 20.099609 C 7.433375 20.033609 6.8055156 20 5.9785156 20 L 2 20 z M 36.492188 20 L 36.492188 32 L 39.154297 32 L 39.154297 24.044922 L 41.205078 29.179688 L 43.134766 29.179688 L 45.185547 24.044922 L 45.185547 32 L 48 32 L 48 20 L 44.738281 20 L 42.248047 25.923828 L 39.753906 20 L 36.492188 20 z M 17.435547 22.015625 C 17.762547 22.015625 18.079766 22.086516 18.384766 22.228516 C 18.689766 22.370516 18.963078 22.606594 19.205078 22.933594 C 19.437078 23.255594 19.622719 23.669875 19.761719 24.171875 C 19.900719 24.674875 19.96875 25.281094 19.96875 25.996094 C 19.96875 26.748094 19.903438 27.356313 19.773438 27.820312 C 19.641438 28.285313 19.454891 28.692969 19.212891 29.042969 C 18.985891 29.364969 18.715344 29.602859 18.402344 29.755859 C 18.089344 29.909859 17.768547 29.984375 17.435547 29.984375 C 17.107547 29.984375 16.789422 29.913484 16.482422 29.771484 C 16.174422 29.628484 15.89825 29.392594 15.65625 29.058594 C 15.41925 28.731594 15.233656 28.322891 15.097656 27.837891 C 14.961656 27.351891 14.892578 26.739906 14.892578 26.003906 C 14.892578 25.289906 14.963422 24.674203 15.107422 24.158203 C 15.251422 23.642203 15.439875 23.229969 15.671875 22.917969 C 15.933875 22.578969 16.205281 22.344891 16.488281 22.212891 C 16.770281 22.080891 17.087547 22.015625 17.435547 22.015625 z M 29.365234 22.015625 C 29.692234 22.015625 30.009453 22.086516 30.314453 22.228516 C 30.619453 22.370516 30.894719 22.606594 31.136719 22.933594 C 31.368719 23.255594 31.552406 23.669875 31.691406 24.171875 C 31.830406 24.674875 31.900391 25.281094 31.900391 25.996094 C 31.900391 26.748094 31.834125 27.356313 31.703125 27.820312 C 31.571125 28.285313 31.386531 28.692969 31.144531 29.042969 C 30.917531 29.364969 30.646984 29.602859 30.333984 29.755859 C 30.020984 29.909859 29.698234 29.984375 29.365234 29.984375 C 29.037234 29.984375 28.719109 29.913484 28.412109 29.771484 C 28.104109 29.628484 27.829891 29.392594 27.587891 29.058594 C 27.350891 28.731594 27.163344 28.322891 27.027344 27.837891 C 26.891344 27.351891 26.824219 26.739906 26.824219 26.003906 C 26.824219 25.289906 26.895063 24.674203 27.039062 24.158203 C 27.183062 23.642203 27.371516 23.229969 27.603516 22.917969 C 27.865516 22.578969 28.136922 22.344891 28.419922 22.212891 C 28.701922 22.080891 29.017234 22.015625 29.365234 22.015625 z M 4.8144531 22.199219 L 5.0117188 22.199219 C 5.5157187 22.199219 5.8953906 22.204891 6.1503906 22.212891 C 6.4053906 22.219891 6.6255 22.267516 6.8125 22.353516 C 7.0095 22.444516 7.1530938 22.592875 7.2460938 22.796875 C 7.3400938 23.000875 7.3867188 23.198578 7.3867188 23.392578 C 7.3867188 23.656578 7.3438125 23.886937 7.2578125 24.085938 C 7.1718125 24.284937 7.0160625 24.439734 6.7890625 24.552734 C 6.5820625 24.655734 6.3815 24.711656 6.1875 24.722656 C 5.9925 24.733656 5.6539219 24.738281 5.1699219 24.738281 L 4.8144531 24.738281 L 4.8144531 22.199219 z M 4.8144531 26.792969 L 5.3359375 26.792969 C 5.8399375 26.792969 6.2429688 26.796688 6.5429688 26.804688 C 6.8429688 26.811688 7.079 26.852875 7.25 26.921875 C 7.533 27.029875 7.7457187 27.186484 7.8867188 27.396484 C 8.0277188 27.606484 8.0976562 27.896578 8.0976562 28.267578 C 8.0976562 28.558578 8.0379219 28.817922 7.9199219 29.044922 C 7.8009219 29.272922 7.6124687 29.446453 7.3554688 29.564453 C 7.0634688 29.699453 6.7761406 29.77025 6.4941406 29.78125 C 6.2111406 29.79225 5.7027969 29.798828 4.9667969 29.798828 L 4.8144531 29.798828 L 4.8144531 26.792969 z M 41.154297 31.179688 L 41.154297 32 L 41.154297 34 L 39.154297 34 L 36.492188 34 L 34.492188 34 L 34.492188 32.28125 C 33.176187 33.56725 31.416422 34.25 29.357422 34.25 C 27.088422 34.25 25.180844 33.426187 23.839844 31.867188 C 23.683844 31.686187 23.537391 31.497734 23.400391 31.302734 C 23.254391 31.509734 23.100594 31.710391 22.933594 31.900391 C 21.587594 33.438391 19.681781 34.25 17.425781 34.25 C 15.156781 34.25 13.249203 33.426187 11.908203 31.867188 C 11.888203 31.843187 11.871562 31.816969 11.851562 31.792969 C 11.631562 32.071969 11.390094 32.329781 11.121094 32.550781 C 10.489094 33.080781 9.7797188 33.463406 9.0117188 33.691406 C 8.3137187 33.898406 7.4957656 34 6.5097656 34 L 3.9492188 34 C 5.4252187 36.958 8.476 39 12 39 C 13.048 39 14.087312 38.814078 15.070312 38.455078 C 15.533312 41.588078 18.24 44 21.5 44 C 23.993 44 26.204062 42.583172 27.289062 40.451172 C 28.449063 41.440172 29.934 42 31.5 42 C 34.153 42 36.510953 40.385422 37.501953 37.982422 C 37.672953 37.993422 37.837 38 38 38 C 41.113 38 43.862516 36.41 45.478516 34 L 45.185547 34 L 43.185547 34 L 43.185547 32 L 43.185547 31.179688 L 43.134766 31.179688 L 41.205078 31.179688 L 41.154297 31.179688 z M 6.046875 39.996094 A 1.0001 1.0001 0 0 0 5.6835938 40.050781 L 2.6835938 41.050781 A 1.0005646 1.0005646 0 0 0 3.3164062 42.949219 L 6.3164062 41.949219 A 1.0001 1.0001 0 0 0 6.046875 39.996094 z M 42.945312 39.998047 A 1.0001 1.0001 0 0 0 42.757812 41.970703 L 46.757812 42.970703 A 1.0004596 1.0004596 0 1 0 47.242188 41.029297 L 43.242188 40.029297 A 1.0001 1.0001 0 0 0 42.945312 39.998047 z M 38.933594 41.990234 A 1.0001 1.0001 0 0 0 38.199219 43.599609 L 41.199219 47.599609 A 1.0003905 1.0003905 0 1 0 42.800781 46.400391 L 39.800781 42.400391 A 1.0001 1.0001 0 0 0 38.933594 41.990234 z M 8.9804688 42.990234 A 1.0001 1.0001 0 0 0 8.2929688 43.292969 L 5.2929688 46.292969 A 1.0001 1.0001 0 1 0 6.7070312 47.707031 L 9.7070312 44.707031 A 1.0001 1.0001 0 0 0 8.9804688 42.990234 z M 35.984375 43.986328 A 1.0001 1.0001 0 0 0 35 45 L 35 47 A 1.0001 1.0001 0 1 0 37 47 L 37 45 A 1.0001 1.0001 0 0 0 35.984375 43.986328 z M 13.984375 44.986328 A 1.0001 1.0001 0 0 0 13 46 L 13 47 A 1.0001 1.0001 0 1 0 15 47 L 15 46 A 1.0001 1.0001 0 0 0 13.984375 44.986328 z"/>
</svg>
