<svg xmlns="http://www.w3.org/2000/svg" xmlns:xlink="http://www.w3.org/1999/xlink" version="1.1" x="0px" y="0px" viewBox="0 0 100 125" enable-background="new 0 0 100 100" xml:space="preserve"><g><polygon fill="#000000" points="30.931,28.449 20.276,39.104 30.931,39.104  "/></g><g><polygon fill="#000000" points="20.496,42.104 20.496,51.932 30.324,42.104  "/></g><g><path fill="#000000" d="M16.254,49.711c0.399,0.399,0.817,0.769,1.243,1.123v-8.95l-4.089,4.089   C14.178,47.306,15.113,48.57,16.254,49.711z"/></g><g><path fill="#000000" d="M42.98,25.669c-0.395-0.488-0.817-0.961-1.27-1.414c-1.141-1.141-2.404-2.076-3.738-2.847l-4.261,4.261   H42.98z"/></g><g><polygon fill="#000000" points="30.931,28.449 20.276,39.104 30.931,39.104  "/></g><g><polygon fill="#000000" points="20.496,42.104 20.496,51.932 30.324,42.104  "/></g><g><path fill="#000000" d="M16.254,49.711c0.399,0.399,0.817,0.769,1.243,1.123v-8.95l-4.089,4.089   C14.178,47.306,15.113,48.57,16.254,49.711z"/></g><g><path fill="#000000" d="M42.98,25.669c-0.395-0.488-0.817-0.961-1.27-1.414c-1.141-1.141-2.404-2.076-3.738-2.847l-4.261,4.261   H42.98z"/></g><g><polygon fill="#000000" points="33.931,38.497 43.759,28.669 33.931,28.669  "/></g><g><path fill="#000000" d="M18.457,22.387l-0.153-0.153c-1.18-1.18-3.086-1.186-4.257-0.015s-1.165,3.078,0.015,4.257l0.185,0.185   c-3.402,4.852-4.129,11.002-2.184,16.415l23.013-23.013C29.586,18.091,23.339,18.861,18.457,22.387z"/></g><g><path fill="#000000" d="M68.859,84.804c2.147,2.44,5.908,2.56,8.206,0.262h0c2.298-2.298,2.178-6.059-0.262-8.206L58.791,61.009   l-5.435,6.176L68.859,84.804z"/></g><g><path fill="#000000" d="M45.952,49.711l0.354-0.354c0.586-0.586,0.586-1.536,0-2.121l-1.564-1.564   c2.523-4.581,2.898-10.027,1.129-14.871L22.799,53.871c4.844,1.769,10.29,1.394,14.871-1.129l1.564,1.564   c0.586,0.586,1.536,0.586,2.121,0l0.356-0.356l2.484,2.824l4.892-4.304L45.952,49.711z"/></g><g><polygon fill="#000000" points="33.931,38.497 43.759,28.669 33.931,28.669  "/></g><g><path fill="#000000" d="M18.457,22.387l-0.153-0.153c-1.18-1.18-3.086-1.186-4.257-0.015s-1.165,3.078,0.015,4.257l0.185,0.185   c-3.402,4.852-4.129,11.002-2.184,16.415l23.013-23.013C29.586,18.091,23.339,18.861,18.457,22.387z"/></g><g><polygon fill="#000000" points="71.61,38.933 82.266,38.933 71.61,28.277  "/></g><g><polygon fill="#000000" points="68.611,28.497 58.783,28.497 68.611,38.325  "/></g><g><path fill="#000000" d="M64.742,21.408c-1.333,0.771-2.597,1.706-3.738,2.847c-0.399,0.399-0.769,0.817-1.123,1.243h8.95   L64.742,21.408z"/></g><g><path fill="#000000" d="M85.045,50.981c0.488-0.395,0.961-0.817,1.414-1.27c1.141-1.141,2.076-2.404,2.847-3.738l-4.261-4.261   V50.981z"/></g><path fill="#000000" d="M57.972,45.671l-1.564,1.564c-0.586,0.586-0.586,1.536,0,2.121l0.356,0.356L25.911,76.86  c-2.44,2.147-2.56,5.908-0.262,8.206c2.298,2.298,6.059,2.178,8.206-0.262l27.149-30.851l0.354,0.354  c0.586,0.586,1.536,0.586,2.121,0l1.564-1.564c4.581,2.523,10.027,2.898,14.871,1.129L56.843,30.8  C55.074,35.644,55.449,41.09,57.972,45.671z"/><g><polygon fill="#000000" points="82.046,51.76 82.046,41.932 72.218,41.932  "/></g><g><path fill="#000000" d="M88.328,26.458l0.153-0.153c1.18-1.18,1.186-3.086,0.015-4.257s-3.078-1.165-4.257,0.015l-0.185,0.185   c-4.852-3.402-11.002-4.129-16.415-2.184l23.013,23.013C92.624,37.587,91.853,31.34,88.328,26.458z"/></g><text x="0" y="115" fill="#000000" font-size="5px" font-weight="bold" font-family="'Helvetica Neue', Helvetica, Arial-Unicode, Arial, Sans-serif">Created by Daouna Jeong</text><text x="0" y="120" fill="#000000" font-size="5px" font-weight="bold" font-family="'Helvetica Neue', Helvetica, Arial-Unicode, Arial, Sans-serif">from the Noun Project</text></svg>