<?xml version="1.0" encoding="iso-8859-1"?>
<!-- Generator: Adobe Illustrator 17.1.0, SVG Export Plug-In . SVG Version: 6.00 Build 0)  -->
<!DOCTYPE svg PUBLIC "-//W3C//DTD SVG 1.1//EN" "http://www.w3.org/Graphics/SVG/1.1/DTD/svg11.dtd">
<svg xmlns="http://www.w3.org/2000/svg" xmlns:xlink="http://www.w3.org/1999/xlink" version="1.1" id="Capa_1" x="0px" y="0px" viewBox="0 0 512.005 512.005" style="enable-background:new 0 0 512.005 512.005;" xml:space="preserve" width="512px" height="512px">
<g>
	<g>
		<path d="M384.005,48h-23.998c-4.418,0-8-3.582-8-8s3.582-8,8-8h23.998c4.411,0,8-3.589,8-8c0-4.411-3.589-8-8-8H128.001    c-4.412,0-8,3.589-8,8c0,4.412,3.589,8,8,8h200.165c4.418,0,8,3.582,8,8s-3.582,8-8,8H128.001c-13.234,0-24-10.767-24-24    s10.767-24,24-24h256.004c13.234,0,24,10.766,24,24S397.239,48,384.005,48z" fill="#FFFFFF"/>
	</g>
	<g>
		<path d="M384.004,512.005H128c-13.234,0-24-10.767-24-24c0-13.234,10.767-24,24-24h200.166c4.418,0,8,3.582,8,8s-3.582,8-8,8H128    c-4.412,0-8,3.589-8,8s3.589,8,8,8h256.004c4.411,0,8-3.589,8-8s-3.589-8-8-8h-23.998c-4.418,0-8-3.582-8-8s3.582-8,8-8h23.998    c13.234,0,24,10.766,24,24C408.004,501.238,397.238,512.005,384.004,512.005z" fill="#FFFFFF"/>
	</g>
	<g>
		<path d="M384.166,480h-24c-4.418,0-8-3.582-8-8s3.582-8,8-8h16v-38c0-7.188-3.6-18.667-7.704-24.565l-97.994-140.866    c-1.91-2.746-1.91-6.391,0-9.137l97.994-140.866c4.104-5.899,7.704-17.378,7.704-24.566V48h-16c-4.418,0-8-3.582-8-8s3.582-8,8-8    h24c4.418,0,8,3.582,8,8v46c0,10.379-4.643,25.184-10.569,33.703L286.781,256l94.816,136.297    c5.927,8.519,10.569,23.323,10.569,33.703v46C392.166,476.418,388.584,480,384.166,480z" fill="#FFFFFF"/>
	</g>
	<g>
		<path d="M329.166,480h-201c-4.418,0-8-3.582-8-8v-46c0-10.379,4.643-25.183,10.57-33.703L225.551,256l-94.815-136.297    c-5.927-8.52-10.57-23.324-10.57-33.703V40c0-4.418,3.582-8,8-8h199c4.418,0,8,3.582,8,8s-3.582,8-8,8h-191v38    c0,7.187,3.6,18.666,7.705,24.565l97.993,140.866c1.91,2.746,1.91,6.391,0,9.137l-97.993,140.866    c-4.104,5.9-7.705,17.379-7.705,24.566v38h193c4.418,0,8,3.582,8,8S333.584,480,329.166,480z" fill="#FFFFFF"/>
	</g>
	<g>
		<path d="M352.166,448h-192c-4.418,0-8-3.582-8-8v-13.96c0-0.092,0.001-0.185,0.005-0.276c0.14-4.038,2.514-11.606,4.705-14.998    c0.049-0.077,0.1-0.153,0.152-0.228l92.571-133.071c1.496-2.15,3.949-3.432,6.567-3.432s5.072,1.282,6.567,3.432l92.572,133.072    c0.052,0.076,0.104,0.152,0.154,0.229c2.19,3.393,4.563,10.961,4.702,14.996c0.003,0.091,0.005,0.183,0.005,0.275V440    C360.166,444.418,356.584,448,352.166,448z M168.166,432h176v-5.743c-0.129-1.422-1.401-5.48-2.13-6.774l-85.87-123.438    l-85.88,123.453c-0.706,1.24-1.979,5.298-2.12,6.778V432z" fill="#FFFFFF"/>
	</g>
	<g>
		<path d="M256.166,237.964c-2.619,0-5.072-1.282-6.567-3.432l-37.541-53.964c-1.701-2.445-1.902-5.633-0.523-8.273    c1.379-2.64,4.111-4.295,7.09-4.295h75.081c2.979,0,5.711,1.655,7.09,4.295c1.379,2.64,1.178,5.828-0.523,8.273l-37.541,53.964    C261.238,236.683,258.785,237.964,256.166,237.964z M233.936,184l22.23,31.956L278.396,184H233.936z" fill="#FFFFFF"/>
	</g>
</g>
<g>
</g>
<g>
</g>
<g>
</g>
<g>
</g>
<g>
</g>
<g>
</g>
<g>
</g>
<g>
</g>
<g>
</g>
<g>
</g>
<g>
</g>
<g>
</g>
<g>
</g>
<g>
</g>
<g>
</g>
</svg>
